<?xml version="1.0" encoding="utf-8"?>
<!-- Generator: Adobe Illustrator 24.1.0, SVG Export Plug-In . SVG Version: 6.00 Build 0)  -->
<svg version="1.1" id="Layer_1" xmlns="http://www.w3.org/2000/svg" xmlns:xlink="http://www.w3.org/1999/xlink" x="0px" y="0px"
     width='60px' height='60px' shape-rendering="auto"
	 viewBox="0 0 50 50" style="enable-background:new 0 0 50 50;" xml:space="preserve">
<style type="text/css">
	.st0{fill:#F15A29;}
</style>
<path class="st0" d="M13.1,14.4c5.9,6.2,8.4,11.4,9.6,15c0.3,0.9,0.6,2.1,1.4,4.1c1.9,5.3,3.1,8.3,5.5,10.9c1,1.1,5.1,5.7,10.9,5.5
	c0.9,0,4.3-0.2,6.8-2.7c2.6-2.6,2.7-5.9,2.7-6.8c0.2-5.8-4.4-10-5.5-10.9c-2.7-2.4-5.7-3.5-10.9-5.5c-2-0.7-3.2-1.1-4.1-1.4
	c-3.7-1.2-8.8-3.7-15-9.6c5.6,3.7,11.7,4.2,15,1.4c0.3-0.2,2.7-2.3,2.7-5.5c0-3.7-3.2-6.2-4.1-6.8c-5-3.8-14-2.3-22.9,3.1
	c-5.4,8.9-6.9,17.9-3.1,22.9C2.8,29,5.3,32.2,9,32.2c3.1,0,5.2-2.4,5.5-2.7C17.2,26.1,16.8,20,13.1,14.4z"/>
</svg>
