<?xml version="1.0" encoding="utf-8"?>
<!-- Generator: Adobe Illustrator 24.0.3, SVG Export Plug-In . SVG Version: 6.00 Build 0)  -->
<svg version="1.1" id="Layer_1" xmlns="http://www.w3.org/2000/svg" xmlns:xlink="http://www.w3.org/1999/xlink" x="0px" y="0px"
	 viewBox="0 0 110 110" style="enable-background:new 0 0 110 110;" xml:space="preserve">
<style type="text/css">
	.st0{fill:#F15A29;}
</style>
<path class="st0" d="M31.94,34.581c11.397,12.037,16.225,22.002,18.496,29.065c0.544,1.691,1.225,4.098,2.642,7.927
	c3.76,10.155,5.902,15.941,10.569,21.138c1.915,2.132,9.857,10.977,21.138,10.569c1.795-0.065,8.224-0.297,13.211-5.285
	c4.987-4.987,5.22-11.417,5.285-13.211c0.408-11.281-8.437-19.224-10.569-21.138c-5.197-4.667-10.983-6.809-21.138-10.569
	c-3.829-1.418-6.235-2.098-7.927-2.642c-7.063-2.271-17.028-7.099-29.065-18.496c10.793,7.177,22.599,8.059,29.065,2.642
	c0.554-0.464,5.229-4.503,5.285-10.569c0.065-7.116-6.275-11.952-7.927-13.211c-9.616-7.334-27.039-4.496-44.268,5.955
	C6.299,33.975,3.469,51.389,10.802,61.004c1.261,1.653,6.096,7.992,13.211,7.927c6.066-0.055,10.105-4.73,10.569-5.285
	C39.999,57.18,39.117,45.374,31.94,34.581z"/>
</svg>
